<svg xmlns="http://www.w3.org/2000/svg" viewBox="0 0 100 100">
  <path d="M50,10 C35,10 25,25 25,50 C25,75 35,90 50,90 C65,90 75,75 75,50 C75,25 65,10 50,10 Z" fill="none" stroke="#10b981" stroke-width="5"/>
  <path d="M50,20 C42,20 35,35 35,50 C35,65 42,80 50,80 C58,80 65,65 65,50 C65,35 58,20 50,20 Z" fill="#10b981"/>
  <line x1="50" y1="20" x2="50" y2="80" stroke="white" stroke-width="2" stroke-linecap="round"/>
  <path d="M50,30 L40,35 M50,45 L40,50 M50,60 L40,65 M50,30 L60,35 M50,45 L60,50 M50,60 L60,65" stroke="white" stroke-width="2" stroke-linecap="round"/>
</svg>